#!OML:ASF F:\VICON\USERDATA\INSTALL\Justin_Nancy\Justin_Nancy.ASF
:FULLY-SPECIFIED
:DEGREES
1
root -8.91615 17.5143 -32.75 -1.4536 -6.19748 1.72036
lowerback 7.0335 -0.381481 0.539966
upperback -1.88097 -0.41359 0.805243
thorax -5.90678 -0.207884 0.585161
lowerneck -7.81486 -0.356121 -10.8428
upperneck 20.1782 -0.0448127 6.15848
head 7.47367 -0.288812 3.84653
rclavicle 1.39398e-014 5.1684e-015
rhumerus -36.2762 -11.1179 -79.0383
rradius 31.9507
rwrist 5.68781
rhand -13.366 14.1381
rfingers 7.12502
rthumb 12.7404 -15.4532
lclavicle 1.39398e-014 5.1684e-015
lhumerus -42.4261 17.0084 77.9244
lradius 25.2569
lwrist -9.9014
lhand -16.4304 23.9665
lfingers 7.12502
lthumb 9.78491 53.7192
rfemur -6.98187 1.88528 20.9015
rtibia 62.2461
rfoot 20.1781 1.10355
rtoes 19.3707
lfemur -18.0782 -1.58962 -24.8838
ltibia 24.9464
lfoot -3.64037 -2.78875
ltoes 3.78923
2
root -8.90281 17.5318 -32.5626 -1.7747 -6.32826 1.85226
lowerback 7.18286 -1.74975 -4.87321
upperback -2.47294 -2.51505 5.1433
thorax -6.21043 -0.938296 8.55203
lowerneck -5.50398 1.22824 -15.0334
upperneck 19.8163 2.88089 3.56827
head 6.73622 0.577242 3.85196
rclavicle -1.63997e-014 0
rhumerus -35.9455 -1.00859 -76.335
rradius 31.4953
rwrist 3.93817
rhand -13.6051 13.8484
rfingers 7.12502
rthumb 12.5098 -15.7572
lclavicle -1.63997e-014 0
lhumerus -46.351 25.5186 79.2576
lradius 25.8071
lwrist -11.5476
lhand -17.5609 22.7687
lfingers 7.12502
lthumb 8.69411 52.5697
rfemur -7.90961 1.6859 20.5379
rtibia 63.9412
rfoot 18.3333 0.221363
rtoes 18.2616
lfemur -16.9443 -1.79548 -25.1893
ltibia 24.7914
lfoot -3.92629 -2.40075
ltoes 3.63595
3
root -8.90315 17.5434 -32.404 -1.91815 -6.00739 2.02322
lowerback 2.43158 -4.07377 -0.203521
upperback -2.02665 -5.36859 2.65081
thorax -3.17255 -2.64235 3.10883
lowerneck 2.44541 4.28668 -17.0424
upperneck 15.1149 5.16425 6.74478
head 3.5322 1.92952 4.9615
rclavicle -4.60187e-014 -3.18055e-015
rhumerus -36.6522 0.745534 -81.2548
rradius 30.4224
rwrist 5.28252
rhand -13.0613 14.5523
rfingers 7.12502
rthumb 13.0341 -15.0205
lclavicle -4.60187e-014 -3.18055e-015
lhumerus -48.8256 26.2537 73.6395
lradius 26.6749
lwrist -10.249
lhand -16.5763 23.3296
lfingers 7.12502
lthumb 9.64413 53.0889
rfemur -9.10936 1.16033 20.2399
rtibia 65.6059
rfoot 16.5428 -0.854822
rtoes 19.0251
lfemur -16.2789 -1.97396 -25.5143
ltibia 24.943
lfoot -4.59548 -2.26023
ltoes 2.65934
4
root -8.91073 17.5417 -32.2713 -2.02482 -5.70294 2.01163
lowerback 3.46011 -3.98779 -1.22894
upperback -2.0996 -5.27652 3.244
thorax -3.68653 -2.55666 4.37538
lowerneck 1.4861 4.00217 -16.9629
upperneck 15.6519 5.02961 6.19867
head 3.89406 1.82874 4.81645
rclavicle 7.71285e-014 -6.36111e-015
rhumerus -36.401 0.361004 -80.161
rradius 29.7805
rwrist 5.7637
rhand -13.1258 15.0612
rfingers 7.12502
rthumb 12.9719 -14.5156
lclavicle 7.71285e-014 -6.36111e-015
lhumerus -48.2258 26.4894 74.4437
lradius 26.7202
lwrist -10.9056
lhand -15.5917 24.2434
lfingers 7.12502
lthumb 10.594 53.9563
rfemur -10.4911 0.625298 20.243
rtibia 67.1727
rfoot 15.0142 -1.91252
rtoes 18.8809
lfemur -15.6843 -1.89396 -25.595
ltibia 24.9378
lfoot -5.28452 -2.37703
ltoes 2.017
5
root -8.91721 17.5402 -32.1282 -2.22185 -5.77142 1.91963
lowerback 5.206 -3.42017 -2.92536
upperback -2.16838 -4.59531 4.26085
thorax -4.59294 -2.13211 6.50205
lowerneck -0.739102 3.11054 -16.633
upperneck 16.9766 4.40588 5.04563
head 4.79474 1.43391 4.48127
rclavicle -1.89839e-014 -3.18055e-015
rhumerus -36.0382 -0.310208 -78.2988
rradius 29.1897
rwrist 6.67943
rhand -13.0531 15.3325
rfingers 7.12502
rthumb 13.042 -14.2398
lclavicle -1.89839e-014 -3.18055e-015
lhumerus -47.0624 26.6649 76.184
lradius 26.5121
lwrist -11.9982
lhand -15.7191 23.9971
lfingers 7.12502
lthumb 10.4711 53.7163
rfemur -11.7401 0.515375 20.3454
rtibia 68.5259
rfoot 13.3798 -3.19569
rtoes 17.6439
lfemur -14.9236 -1.65483 -25.5581
ltibia 24.9312
lfoot -5.84343 -2.38512
ltoes 3.01279
6
root -8.90986 17.5524 -31.9528 -2.5498 -6.02216 2.23359
lowerback 6.76866 -2.73161 -4.73866
upperback -2.14659 -3.81973 5.03186
thorax -5.40207 -1.64287 8.43316
lowerneck -3.42747 2.2157 -16.0361
upperneck 18.6626 3.88012 3.82546
head 5.89126 1.06127 4.08144
rclavicle 5.75482e-014 6.36111e-015
rhumerus -35.7802 -0.876499 -76.6326
rradius 28.8146
rwrist 7.36448
rhand -13.1588 15.7551
rfingers 7.12502
rthumb 12.9401 -13.8237
lclavicle 5.75482e-014 6.36111e-015
lhumerus -45.8648 26.7736 77.8422
lradius 26.3693
lwrist -12.685
lhand -15.6915 23.7521
lfingers 7.12502
lthumb 10.4978 53.47
rfemur -12.7143 0.554535 19.8319
rtibia 69.5858
rfoot 11.8946 -4.19646
rtoes 16.026
lfemur -13.8567 -1.69526 -26.0283
ltibia 24.8941
lfoot -6.54163 -1.82336
ltoes 2.95809
7
root -8.89572 17.5567 -31.7614 -2.7502 -6.36318 2.5673
lowerback 7.32182 -2.4553 -5.44585
upperback -2.06093 -3.52218 5.27573
thorax -5.62748 -1.45676 9.12263
lowerneck -5.29565 1.94826 -15.6531
upperneck 19.7865 3.9614 3.21525
head 6.59519 1.02389 3.89414
rclavicle -2.57426e-014 -1.59028e-015
rhumerus -35.5845 -1.07986 -76.0024
rradius 28.454
rwrist 7.96812
rhand -13.3744 15.7277
rfingers 7.12502
rthumb 12.7323 -13.8642
lclavicle -2.57426e-014 -1.59028e-015
lhumerus -45.1822 26.9974 78.4504
lradius 26.5187
lwrist -12.6469
lhand -15.3557 24.0075
lfingers 7.12502
lthumb 10.8216 53.7087
rfemur -13.7561 0.610021 19.2246
rtibia 70.4192
rfoot 10.5827 -4.85508
rtoes 14.6376
lfemur -12.9219 -1.87925 -26.5694
ltibia 24.9056
lfoot -7.2874 -1.0466
ltoes 3.17802
8
root -8.88681 17.5568 -31.587 -2.81279 -6.35861 2.86191
lowerback 5.02233 -3.43619 -4.01879
upperback -1.83823 -4.68799 4.52128
thorax -4.02607 -2.17352 7.37287
lowerneck -1.81065 3.18422 -16.6544
upperneck 17.7673 4.86697 4.08189
head 5.21502 1.56036 4.23656
rclavicle 5.28767e-014 -1.27222e-014
rhumerus -35.9321 -0.0477802 -77.5597
rradius 28.167
rwrist 8.53492
rhand -13.2861 15.1653
rfingers 7.12502
rthumb 12.8174 -14.4212
lclavicle 5.28767e-014 -1.27222e-014
lhumerus -46.1462 27.5439 76.5469
lradius 27.1405
lwrist -12.0921
lhand -15.48 23.8249
lfingers 7.12502
lthumb 10.7018 53.5323
rfemur -14.975 0.432468 18.711
rtibia 71.1441
rfoot 9.22655 -5.53436
rtoes 13.2726
lfemur -12.2309 -1.9044 -27.0706
ltibia 24.9622
lfoot -8.00754 -0.717302
ltoes 2.9899
9
root -8.88238 17.5578 -31.4376 -2.58583 -6.64962 2.69898
lowerback 6.31168 -2.80739 -5.4786
upperback -2.01444 -3.95566 5.49506
thorax -4.9011 -1.70888 9.33923
lowerneck -4.25994 2.39006 -16.0445
upperneck 19.3443 4.45518 2.8766
head 6.2358 1.23007 3.83756
rclavicle -2.14687e-014 4.29375e-014
rhumerus -35.9085 -0.313215 -75.9702
rradius 28.3603
rwrist 8.13367
rhand -13.0479 14.7502
rfingers 7.12502
rthumb 13.047 -14.8218
lclavicle -2.14687e-014 4.29375e-014
lhumerus -45.3012 27.2887 78.4353
lradius 27.4987
lwrist -12.4927
lhand -16.173 23.3258
lfingers 7.12502
lthumb 10.0332 53.0667
rfemur -16.5986 0.576062 18.7969
rtibia 71.7871
rfoot 8.23302 -6.09174
rtoes 12.4993
lfemur -12.1047 -1.68323 -26.9871
ltibia 25.3232
lfoot -8.68358 -0.416822
ltoes 3.1252
